<mxfile modified="2020-08-27T12:11:24.009Z" host="app.diagrams.net" agent="5.0 (Macintosh; Intel Mac OS X 10_15_6) AppleWebKit/537.36 (KHTML, like Gecko) Chrome/84.0.4147.135 Safari/537.36" etag="8zdO2BlB8CyLvFwVW9C3" version="13.6.3" type="github">
  <diagram id="Ht1M8jgEwFfnCIfOTk4-" name="Page-1">
    <mxGraphModel dx="1186" dy="764" grid="1" gridSize="10" guides="1" tooltips="1" connect="1" arrows="1" fold="1" page="1" pageScale="1" pageWidth="1169" pageHeight="827" math="0" shadow="0">
      <root>
        <mxCell id="0" />
        <mxCell id="1" parent="0" />
        <mxCell id="2UL43dvejnL108hBSJkL-25" style="edgeStyle=orthogonalEdgeStyle;rounded=0;orthogonalLoop=1;jettySize=auto;html=1;exitX=1;exitY=0.75;exitDx=0;exitDy=0;entryX=0.396;entryY=-0.004;entryDx=0;entryDy=0;entryPerimeter=0;" edge="1" parent="1" source="2UL43dvejnL108hBSJkL-16" target="2UL43dvejnL108hBSJkL-11">
          <mxGeometry relative="1" as="geometry" />
        </mxCell>
        <mxCell id="2UL43dvejnL108hBSJkL-7" value="" style="edgeStyle=orthogonalEdgeStyle;rounded=0;orthogonalLoop=1;jettySize=auto;html=1;" edge="1" parent="1" source="2UL43dvejnL108hBSJkL-3" target="2UL43dvejnL108hBSJkL-5">
          <mxGeometry relative="1" as="geometry" />
        </mxCell>
        <mxCell id="2UL43dvejnL108hBSJkL-3" value="Admin, Users" style="outlineConnect=0;gradientColor=none;fontColor=#545B64;strokeColor=none;fillColor=#879196;dashed=0;verticalLabelPosition=bottom;verticalAlign=top;align=center;html=1;fontSize=12;fontStyle=0;aspect=fixed;shape=mxgraph.aws4.illustration_users;pointerEvents=1" vertex="1" parent="1">
          <mxGeometry x="40" y="474" width="100" height="100" as="geometry" />
        </mxCell>
        <mxCell id="2UL43dvejnL108hBSJkL-5" value="Responsive UI (desktop, mobile)" style="outlineConnect=0;gradientColor=none;fontColor=#545B64;strokeColor=none;fillColor=#879196;dashed=0;verticalLabelPosition=bottom;verticalAlign=top;align=center;html=1;fontSize=12;fontStyle=0;aspect=fixed;shape=mxgraph.aws4.illustration_devices;pointerEvents=1" vertex="1" parent="1">
          <mxGeometry x="210" y="483.5" width="110" height="80.3" as="geometry" />
        </mxCell>
        <mxCell id="2UL43dvejnL108hBSJkL-8" value="" style="aspect=fixed;perimeter=ellipsePerimeter;html=1;align=center;shadow=0;dashed=0;spacingTop=3;image;image=img/lib/active_directory/secure.svg;" vertex="1" parent="1">
          <mxGeometry x="410" y="540" width="32" height="50" as="geometry" />
        </mxCell>
        <mxCell id="2UL43dvejnL108hBSJkL-23" style="edgeStyle=orthogonalEdgeStyle;rounded=0;orthogonalLoop=1;jettySize=auto;html=1;exitX=0;exitY=0.5;exitDx=0;exitDy=0;" edge="1" parent="1" source="2UL43dvejnL108hBSJkL-10">
          <mxGeometry relative="1" as="geometry">
            <mxPoint x="330" y="530" as="targetPoint" />
          </mxGeometry>
        </mxCell>
        <mxCell id="2UL43dvejnL108hBSJkL-10" value="&lt;p&gt;&lt;b&gt;API LeadServer&lt;/b&gt;&lt;/p&gt;&lt;div&gt;[Container: NodeJs]&amp;nbsp;&lt;/div&gt;" style="whiteSpace=wrap;html=1;aspect=fixed;verticalAlign=top;" vertex="1" parent="1">
          <mxGeometry x="552.5" y="430" width="200" height="200" as="geometry" />
        </mxCell>
        <mxCell id="2UL43dvejnL108hBSJkL-27" value="" style="edgeStyle=orthogonalEdgeStyle;rounded=0;orthogonalLoop=1;jettySize=auto;html=1;" edge="1" parent="1" source="2UL43dvejnL108hBSJkL-11" target="2UL43dvejnL108hBSJkL-10">
          <mxGeometry relative="1" as="geometry" />
        </mxCell>
        <mxCell id="2UL43dvejnL108hBSJkL-11" value="&lt;p style=&quot;color: rgb(0 , 0 , 0) ; font-family: &amp;#34;helvetica&amp;#34; ; font-size: 12px ; font-style: normal ; font-weight: 400 ; letter-spacing: normal ; text-align: center ; text-indent: 0px ; text-transform: none ; word-spacing: 0px ; background-color: rgb(248 , 249 , 250)&quot;&gt;&lt;b&gt;API LeadDatabase&lt;/b&gt;&lt;/p&gt;" style="rounded=0;whiteSpace=wrap;html=1;verticalAlign=top;" vertex="1" parent="1">
          <mxGeometry x="860" y="428" width="240" height="204" as="geometry" />
        </mxCell>
        <mxCell id="2UL43dvejnL108hBSJkL-13" value="" style="edgeStyle=orthogonalEdgeStyle;rounded=0;orthogonalLoop=1;jettySize=auto;html=1;" edge="1" parent="1" source="2UL43dvejnL108hBSJkL-12" target="2UL43dvejnL108hBSJkL-10">
          <mxGeometry relative="1" as="geometry" />
        </mxCell>
        <mxCell id="2UL43dvejnL108hBSJkL-18" style="edgeStyle=orthogonalEdgeStyle;rounded=0;orthogonalLoop=1;jettySize=auto;html=1;exitX=0;exitY=0.5;exitDx=0;exitDy=0;entryX=1;entryY=0.5;entryDx=0;entryDy=0;" edge="1" parent="1" source="2UL43dvejnL108hBSJkL-12" target="2UL43dvejnL108hBSJkL-16">
          <mxGeometry relative="1" as="geometry" />
        </mxCell>
        <mxCell id="2UL43dvejnL108hBSJkL-19" style="edgeStyle=orthogonalEdgeStyle;rounded=0;orthogonalLoop=1;jettySize=auto;html=1;exitX=0;exitY=0.5;exitDx=0;exitDy=0;" edge="1" parent="1" source="2UL43dvejnL108hBSJkL-12" target="2UL43dvejnL108hBSJkL-5">
          <mxGeometry relative="1" as="geometry">
            <Array as="points">
              <mxPoint x="570" y="260" />
              <mxPoint x="460" y="260" />
              <mxPoint x="460" y="500" />
            </Array>
          </mxGeometry>
        </mxCell>
        <mxCell id="2UL43dvejnL108hBSJkL-24" style="edgeStyle=orthogonalEdgeStyle;rounded=0;orthogonalLoop=1;jettySize=auto;html=1;exitX=1;exitY=0.5;exitDx=0;exitDy=0;" edge="1" parent="1" source="2UL43dvejnL108hBSJkL-12" target="2UL43dvejnL108hBSJkL-11">
          <mxGeometry relative="1" as="geometry" />
        </mxCell>
        <mxCell id="2UL43dvejnL108hBSJkL-12" value="&lt;p&gt;&lt;b&gt;Authentification / Authorization Service&lt;/b&gt;&lt;/p&gt;&lt;p&gt;[Container: Node.JS, Postgress]&lt;/p&gt;&lt;p&gt;After a successfull login it sends back an JWT Token&lt;/p&gt;" style="whiteSpace=wrap;html=1;aspect=fixed;verticalAlign=top;horizontal=1;" vertex="1" parent="1">
          <mxGeometry x="570" y="167.5" width="165" height="165" as="geometry" />
        </mxCell>
        <mxCell id="2UL43dvejnL108hBSJkL-14" value="" style="whiteSpace=wrap;html=1;aspect=fixed;" vertex="1" parent="1">
          <mxGeometry x="100" y="170" width="80" height="80" as="geometry" />
        </mxCell>
        <mxCell id="2UL43dvejnL108hBSJkL-15" value="" style="whiteSpace=wrap;html=1;aspect=fixed;" vertex="1" parent="1">
          <mxGeometry x="120" y="190" width="80" height="80" as="geometry" />
        </mxCell>
        <mxCell id="2UL43dvejnL108hBSJkL-16" value="" style="whiteSpace=wrap;html=1;aspect=fixed;" vertex="1" parent="1">
          <mxGeometry x="140" y="210" width="80" height="80" as="geometry" />
        </mxCell>
        <mxCell id="2UL43dvejnL108hBSJkL-20" value="API" style="rounded=0;whiteSpace=wrap;html=1;" vertex="1" parent="1">
          <mxGeometry x="860" y="496.5" width="60" height="60" as="geometry" />
        </mxCell>
        <mxCell id="2UL43dvejnL108hBSJkL-22" value="" style="edgeStyle=orthogonalEdgeStyle;rounded=0;orthogonalLoop=1;jettySize=auto;html=1;" edge="1" parent="1" source="2UL43dvejnL108hBSJkL-21" target="2UL43dvejnL108hBSJkL-20">
          <mxGeometry relative="1" as="geometry" />
        </mxCell>
        <mxCell id="2UL43dvejnL108hBSJkL-21" value="Postgress" style="shape=cylinder2;whiteSpace=wrap;html=1;boundedLbl=1;backgroundOutline=1;size=15;" vertex="1" parent="1">
          <mxGeometry x="1010" y="486.5" width="60" height="80" as="geometry" />
        </mxCell>
        <mxCell id="2UL43dvejnL108hBSJkL-26" value="Lead generators" style="text;html=1;strokeColor=none;fillColor=none;align=center;verticalAlign=middle;whiteSpace=wrap;rounded=0;" vertex="1" parent="1">
          <mxGeometry x="140" y="305" width="40" height="20" as="geometry" />
        </mxCell>
      </root>
    </mxGraphModel>
  </diagram>
</mxfile>
